<mxfile host="app.diagrams.net" agent="Mozilla/5.0 (Macintosh; Intel Mac OS X 10_15_7) AppleWebKit/537.36 (KHTML, like Gecko) Chrome/134.0.0.0 Safari/537.36" version="26.2.15">
  <diagram name="Page-1" id="STDr1Y2wVP1EUc82jMBQ">
    <mxGraphModel dx="2139" dy="1985" grid="1" gridSize="10" guides="1" tooltips="1" connect="1" arrows="1" fold="1" page="1" pageScale="1" pageWidth="850" pageHeight="1100" math="0" shadow="0">
      <root>
        <mxCell id="0" />
        <mxCell id="1" parent="0" />
        <mxCell id="GnrDHG70eU0a4UuBjebs-30" style="edgeStyle=orthogonalEdgeStyle;rounded=0;orthogonalLoop=1;jettySize=auto;html=1;exitX=0.5;exitY=1;exitDx=0;exitDy=0;" edge="1" parent="1" source="GnrDHG70eU0a4UuBjebs-1" target="GnrDHG70eU0a4UuBjebs-25">
          <mxGeometry relative="1" as="geometry" />
        </mxCell>
        <mxCell id="GnrDHG70eU0a4UuBjebs-37" style="edgeStyle=orthogonalEdgeStyle;rounded=0;orthogonalLoop=1;jettySize=auto;html=1;exitX=0;exitY=0.25;exitDx=0;exitDy=0;entryX=1;entryY=0.75;entryDx=0;entryDy=0;" edge="1" parent="1" source="GnrDHG70eU0a4UuBjebs-1" target="GnrDHG70eU0a4UuBjebs-33">
          <mxGeometry relative="1" as="geometry" />
        </mxCell>
        <mxCell id="GnrDHG70eU0a4UuBjebs-38" style="edgeStyle=orthogonalEdgeStyle;rounded=0;orthogonalLoop=1;jettySize=auto;html=1;exitX=0.5;exitY=0;exitDx=0;exitDy=0;" edge="1" parent="1" source="GnrDHG70eU0a4UuBjebs-1" target="GnrDHG70eU0a4UuBjebs-36">
          <mxGeometry relative="1" as="geometry">
            <mxPoint x="140" y="-40" as="targetPoint" />
          </mxGeometry>
        </mxCell>
        <mxCell id="GnrDHG70eU0a4UuBjebs-45" style="edgeStyle=orthogonalEdgeStyle;rounded=0;orthogonalLoop=1;jettySize=auto;html=1;exitX=0;exitY=0.75;exitDx=0;exitDy=0;" edge="1" parent="1" source="GnrDHG70eU0a4UuBjebs-1">
          <mxGeometry relative="1" as="geometry">
            <mxPoint x="-90" y="290" as="targetPoint" />
          </mxGeometry>
        </mxCell>
        <mxCell id="GnrDHG70eU0a4UuBjebs-48" style="edgeStyle=orthogonalEdgeStyle;rounded=0;orthogonalLoop=1;jettySize=auto;html=1;exitX=1;exitY=0.5;exitDx=0;exitDy=0;" edge="1" parent="1" source="GnrDHG70eU0a4UuBjebs-1">
          <mxGeometry relative="1" as="geometry">
            <mxPoint x="460" y="190" as="targetPoint" />
          </mxGeometry>
        </mxCell>
        <mxCell id="GnrDHG70eU0a4UuBjebs-1" value="Kart Class" style="swimlane;whiteSpace=wrap;html=1;" vertex="1" parent="1">
          <mxGeometry x="60" y="40" width="260" height="350" as="geometry" />
        </mxCell>
        <mxCell id="GnrDHG70eU0a4UuBjebs-4" value="turnRight(boolean focused): Activated by pressing the D&lt;span style=&quot;background-color: transparent; color: light-dark(rgb(0, 0, 0), rgb(255, 255, 255));&quot;&gt;&amp;nbsp;key (press and hold)&lt;/span&gt;&lt;div&gt;&lt;br&gt;&lt;div&gt;&lt;div&gt;turnLeft(&lt;span style=&quot;background-color: transparent; color: light-dark(rgb(0, 0, 0), rgb(255, 255, 255));&quot;&gt;boolean focused&lt;/span&gt;&lt;span style=&quot;background-color: transparent; color: light-dark(rgb(0, 0, 0), rgb(255, 255, 255));&quot;&gt;): Activated by pressing the A key (press and hold)&lt;/span&gt;&lt;/div&gt;&lt;div&gt;&lt;br&gt;&lt;div&gt;accelerate(&lt;span style=&quot;background-color: transparent; color: light-dark(rgb(0, 0, 0), rgb(255, 255, 255));&quot;&gt;boolean focused&lt;/span&gt;&lt;span style=&quot;background-color: transparent; color: light-dark(rgb(0, 0, 0), rgb(255, 255, 255));&quot;&gt;):&amp;nbsp;&lt;/span&gt;&lt;span style=&quot;background-color: transparent; color: light-dark(rgb(0, 0, 0), rgb(255, 255, 255));&quot;&gt;Activated by pressing the W key (press and hold)&lt;/span&gt;&lt;/div&gt;&lt;div&gt;&lt;span style=&quot;background-color: transparent; color: light-dark(rgb(0, 0, 0), rgb(255, 255, 255));&quot;&gt;&lt;br&gt;&lt;/span&gt;&lt;/div&gt;&lt;div&gt;break(&lt;span style=&quot;background-color: transparent; color: light-dark(rgb(0, 0, 0), rgb(255, 255, 255));&quot;&gt;boolean focused&lt;/span&gt;&lt;span style=&quot;background-color: transparent; color: light-dark(rgb(0, 0, 0), rgb(255, 255, 255));&quot;&gt;):&amp;nbsp;&lt;/span&gt;&lt;span style=&quot;background-color: transparent; color: light-dark(rgb(0, 0, 0), rgb(255, 255, 255));&quot;&gt;Activated by pressing the S key (press and hold) when speed is greater than 0&lt;/span&gt;&lt;/div&gt;&lt;div&gt;&lt;span style=&quot;background-color: transparent; color: light-dark(rgb(0, 0, 0), rgb(255, 255, 255));&quot;&gt;&lt;br&gt;&lt;/span&gt;&lt;/div&gt;&lt;div&gt;reverse(boolean focused):&amp;nbsp;&lt;span style=&quot;background-color: transparent; color: light-dark(rgb(0, 0, 0), rgb(255, 255, 255));&quot;&gt;Activated by pressing the S key (press and hold) when speed is less than or equal to 0&lt;/span&gt;&lt;/div&gt;&lt;div&gt;&lt;span style=&quot;background-color: transparent; color: light-dark(rgb(0, 0, 0), rgb(255, 255, 255));&quot;&gt;&lt;br&gt;&lt;/span&gt;&lt;/div&gt;&lt;div&gt;&lt;span style=&quot;background-color: transparent; color: light-dark(rgb(0, 0, 0), rgb(255, 255, 255));&quot;&gt;All of these have a boolean for if the t key is making the action focused&lt;/span&gt;&lt;/div&gt;&lt;div&gt;&lt;span style=&quot;background-color: transparent; color: light-dark(rgb(0, 0, 0), rgb(255, 255, 255));&quot;&gt;&lt;span style=&quot;white-space: pre;&quot;&gt;&#x9;&lt;/span&gt;&lt;br&gt;&lt;/span&gt;&lt;/div&gt;&lt;div&gt;&lt;br&gt;&lt;/div&gt;&lt;/div&gt;&lt;/div&gt;&lt;/div&gt;" style="rounded=0;whiteSpace=wrap;html=1;align=left;" vertex="1" parent="GnrDHG70eU0a4UuBjebs-1">
          <mxGeometry y="21" width="260" height="329" as="geometry" />
        </mxCell>
        <mxCell id="GnrDHG70eU0a4UuBjebs-17" value="Ground mode - Normal. You&#39;re just driving on the ground. Your wheels are liocked to the ground. No gravity cuz that makes things complicated&lt;div&gt;&lt;br&gt;&lt;/div&gt;&lt;div&gt;Air mode - Activates when you jump or use a ramp. Gravity now exists&lt;/div&gt;&lt;div&gt;&lt;br&gt;&lt;/div&gt;&lt;div&gt;Recovery mode: Activates if you flip over. Essentially it just brings you right side up again&lt;/div&gt;" style="rounded=0;whiteSpace=wrap;html=1;align=left;" vertex="1" parent="1">
          <mxGeometry x="460" y="150" width="200" height="260" as="geometry" />
        </mxCell>
        <mxCell id="GnrDHG70eU0a4UuBjebs-19" value="Different Modes" style="swimlane;whiteSpace=wrap;html=1;" vertex="1" parent="1">
          <mxGeometry x="460" y="150" width="200" height="260" as="geometry" />
        </mxCell>
        <mxCell id="GnrDHG70eU0a4UuBjebs-21" value="Multiplayer" style="swimlane;whiteSpace=wrap;html=1;" vertex="1" parent="1">
          <mxGeometry x="280" y="490" width="200" height="180" as="geometry" />
        </mxCell>
        <mxCell id="GnrDHG70eU0a4UuBjebs-20" value="Voice chat muted by pressing M&lt;div&gt;&lt;br&gt;&lt;/div&gt;&lt;div&gt;Voice chat has push to talk by pressing V&lt;/div&gt;&lt;div&gt;&lt;br&gt;&lt;/div&gt;&lt;div&gt;Not reliant on distance to other cars&lt;/div&gt;" style="rounded=0;whiteSpace=wrap;html=1;align=left;" vertex="1" parent="GnrDHG70eU0a4UuBjebs-21">
          <mxGeometry y="20" width="200" height="160" as="geometry" />
        </mxCell>
        <mxCell id="GnrDHG70eU0a4UuBjebs-23" value="Varying values" style="swimlane;whiteSpace=wrap;html=1;" vertex="1" parent="1">
          <mxGeometry x="-400" y="-400" width="200" height="180" as="geometry" />
        </mxCell>
        <mxCell id="GnrDHG70eU0a4UuBjebs-22" value="Acceleration, speed, handling, mass, and aerodynamics&lt;div&gt;&lt;br&gt;&lt;/div&gt;&lt;div&gt;All of them depend on the kart you&#39;re in&lt;/div&gt;&lt;div&gt;&lt;br&gt;&lt;/div&gt;&lt;div&gt;Acceleration, speed, and handling depend on the weather&lt;/div&gt;" style="rounded=0;whiteSpace=wrap;html=1;align=left;" vertex="1" parent="GnrDHG70eU0a4UuBjebs-23">
          <mxGeometry y="20" width="200" height="160" as="geometry" />
        </mxCell>
        <mxCell id="GnrDHG70eU0a4UuBjebs-25" value="Controls" style="swimlane;whiteSpace=wrap;html=1;" vertex="1" parent="1">
          <mxGeometry x="-110" y="490" width="200" height="270" as="geometry" />
        </mxCell>
        <mxCell id="GnrDHG70eU0a4UuBjebs-24" value="W: Accelerate&lt;div&gt;A: Turn left&lt;/div&gt;&lt;div&gt;S: Brake/reverse&lt;/div&gt;&lt;div&gt;D: Turn right&lt;/div&gt;&lt;div&gt;J: Jump&lt;/div&gt;&lt;div&gt;Shift: Activate teacher special ability&lt;/div&gt;&lt;div&gt;P: Activate powerup&lt;/div&gt;&lt;div&gt;F: Focus power&lt;/div&gt;&lt;div&gt;V: Voice chat push to talk key&lt;/div&gt;&lt;div&gt;M: Mute voice chat&lt;/div&gt;&lt;div&gt;Tab: View minimap&lt;/div&gt;&lt;div&gt;Esc: Open pause menu&lt;/div&gt;" style="rounded=0;whiteSpace=wrap;html=1;align=left;" vertex="1" parent="GnrDHG70eU0a4UuBjebs-25">
          <mxGeometry y="20" width="200" height="250" as="geometry" />
        </mxCell>
        <mxCell id="GnrDHG70eU0a4UuBjebs-33" value="Different kart options" style="swimlane;whiteSpace=wrap;html=1;" vertex="1" parent="1">
          <mxGeometry x="-280" y="-60" width="200" height="180" as="geometry" />
        </mxCell>
        <mxCell id="GnrDHG70eU0a4UuBjebs-34" value="Different karts have different acceleration, speed, handling, mass, and aerodynamics&lt;div&gt;&lt;br&gt;&lt;/div&gt;" style="rounded=0;whiteSpace=wrap;html=1;align=left;" vertex="1" parent="GnrDHG70eU0a4UuBjebs-33">
          <mxGeometry y="20" width="200" height="160" as="geometry" />
        </mxCell>
        <mxCell id="GnrDHG70eU0a4UuBjebs-35" value="Weather" style="swimlane;whiteSpace=wrap;html=1;" vertex="1" parent="1">
          <mxGeometry x="-20" y="-230" width="200" height="180" as="geometry" />
        </mxCell>
        <mxCell id="GnrDHG70eU0a4UuBjebs-36" value="Rai&lt;span style=&quot;background-color: transparent; color: light-dark(rgb(0, 0, 0), rgb(255, 255, 255));&quot;&gt;n - Less handling due to wet roads&lt;/span&gt;&lt;div&gt;&lt;br&gt;&lt;div&gt;&lt;div&gt;Snow - Lower acceleration and speed&lt;/div&gt;&lt;div&gt;&lt;br&gt;&lt;/div&gt;&lt;div&gt;Heat - Extra Handling due to tire grip&lt;/div&gt;&lt;/div&gt;&lt;/div&gt;" style="rounded=0;whiteSpace=wrap;html=1;align=left;" vertex="1" parent="GnrDHG70eU0a4UuBjebs-35">
          <mxGeometry y="20" width="200" height="160" as="geometry" />
        </mxCell>
        <mxCell id="GnrDHG70eU0a4UuBjebs-39" value="Minimap" style="swimlane;whiteSpace=wrap;html=1;" vertex="1" parent="1">
          <mxGeometry x="-290" y="180" width="200" height="180" as="geometry" />
        </mxCell>
        <mxCell id="GnrDHG70eU0a4UuBjebs-40" value="Always in corner of the screen&lt;div&gt;&lt;br&gt;&lt;/div&gt;&lt;div&gt;Has each player as dots&lt;br&gt;&lt;div&gt;&lt;br&gt;&lt;/div&gt;&lt;div&gt;Press and hold tab to open to whole screen&lt;/div&gt;&lt;/div&gt;" style="rounded=0;whiteSpace=wrap;html=1;align=left;" vertex="1" parent="GnrDHG70eU0a4UuBjebs-39">
          <mxGeometry y="20" width="200" height="160" as="geometry" />
        </mxCell>
        <mxCell id="GnrDHG70eU0a4UuBjebs-41" style="edgeStyle=orthogonalEdgeStyle;rounded=0;orthogonalLoop=1;jettySize=auto;html=1;exitX=0.5;exitY=0;exitDx=0;exitDy=0;entryX=0.631;entryY=0.988;entryDx=0;entryDy=0;entryPerimeter=0;" edge="1" parent="1" source="GnrDHG70eU0a4UuBjebs-33" target="GnrDHG70eU0a4UuBjebs-22">
          <mxGeometry relative="1" as="geometry" />
        </mxCell>
        <mxCell id="GnrDHG70eU0a4UuBjebs-42" style="edgeStyle=orthogonalEdgeStyle;rounded=0;orthogonalLoop=1;jettySize=auto;html=1;exitX=0.25;exitY=0;exitDx=0;exitDy=0;entryX=0.981;entryY=0.613;entryDx=0;entryDy=0;entryPerimeter=0;" edge="1" parent="1" source="GnrDHG70eU0a4UuBjebs-35" target="GnrDHG70eU0a4UuBjebs-22">
          <mxGeometry relative="1" as="geometry" />
        </mxCell>
        <mxCell id="GnrDHG70eU0a4UuBjebs-47" style="edgeStyle=orthogonalEdgeStyle;rounded=0;orthogonalLoop=1;jettySize=auto;html=1;exitX=1;exitY=1;exitDx=0;exitDy=0;entryX=0.345;entryY=-0.01;entryDx=0;entryDy=0;entryPerimeter=0;" edge="1" parent="1" source="GnrDHG70eU0a4UuBjebs-1" target="GnrDHG70eU0a4UuBjebs-21">
          <mxGeometry relative="1" as="geometry" />
        </mxCell>
      </root>
    </mxGraphModel>
  </diagram>
</mxfile>
